PathFileType	4	(X/Y/Z)	C:\Users\Basilio\Documents\Thesis Gigler\squatting_fais\c3dfiles\077\SLS_back_pre1\markers_experimental.trc
DataRate	CameraRate	NumFrames	NumMarkers	Units	OrigDataRate	OrigDataStartFrame	OrigNumFrames
200.000000	200.000000	4	60	mm	200.000000	198	1588
Frame#	Time	FHD			RBHD			C7			T10			CLAV			LSHO			LUUPA			LMUPA			LDUPA			LLEP			LMEP			LRAD			LUL			LRFIN			RSHO			RUPA1			RMUPA			RDUPA			RLEP			RMEP			RRAD			RUL			RUFIN			LASI			RASI			USACR			LSACR			RSACR			LTHI1			LTHI2			LTHI3			LTHI4			LLFC			LMFC			LTIB1			LTIB2			LTIB3			LTIB4			LLMAL			LHEE			LMT1			LMT2			LMT5			RTHI			RTHI2			RTHI3			RTHI4			RLFC			RMFC			RTIB1			RTIB2			RTIB3			RTIB4			RLMAL			RMMAL			RHEE			RMT1			RMT2			RMT5			LBHD			
		X1	Y1	Z1	X2	Y2	Z2	X3	Y3	Z3	X4	Y4	Z4	X5	Y5	Z5	X6	Y6	Z6	X7	Y7	Z7	X8	Y8	Z8	X9	Y9	Z9	X10	Y10	Z10	X11	Y11	Z11	X12	Y12	Z12	X13	Y13	Z13	X14	Y14	Z14	X15	Y15	Z15	X16	Y16	Z16	X17	Y17	Z17	X18	Y18	Z18	X19	Y19	Z19	X20	Y20	Z20	X21	Y21	Z21	X22	Y22	Z22	X23	Y23	Z23	X24	Y24	Z24	X25	Y25	Z25	X26	Y26	Z26	X27	Y27	Z27	X28	Y28	Z28	X29	Y29	Z29	X30	Y30	Z30	X31	Y31	Z31	X32	Y32	Z32	X33	Y33	Z33	X34	Y34	Z34	X35	Y35	Z35	X36	Y36	Z36	X37	Y37	Z37	X38	Y38	Z38	X39	Y39	Z39	X40	Y40	Z40	X41	Y41	Z41	X42	Y42	Z42	X43	Y43	Z43	X44	Y44	Z44	X45	Y45	Z45	X46	Y46	Z46	X47	Y47	Z47	X48	Y48	Z48	X49	Y49	Z49	X50	Y50	Z50	X51	Y51	Z51	X52	Y52	Z52	X53	Y53	Z53	X54	Y54	Z54	X55	Y55	Z55	X56	Y56	Z56	X57	Y57	Z57	X58	Y58	Z58	X59	Y59	Z59	X60	Y60	Z60	

199	0.99	-143.8775329589844	1843.709106445313	-1048.2294921875	-304.7635803222657	1752.130249023438	-973.720397949219	-373.5765380859376	1617.296997070313	-1052.076538085938	-415.674285888672	1284.800537109375	-1026.686767578125	-212.0128021240235	1552.176879882813	-1053.878051757813	-290.2619018554688	1569.699340820313	-1249.4931640625	-359.3389892578126	1352.795166015625	-1332.835327148438	-320.4558105468751	1323.638305664063	-1330.367919921875	-367.5673828125001	1285.211669921875	-1336.1884765625	-365.4949340820313	1218.829833984375	-1337.6865234375	-397.8163146972657	1207.645385742188	-1267.871948242188	-234.3546905517579	945.985046386719	-1283.851684570313	-299.2387695312501	925.189880371094	-1327.137817382813	-200.3444213867188	867.6459960937502	-1320.359497070313	-260.9190368652344	1582.949951171875	-858.3996582031252	-334.2531127929688	1384.152709960938	-742.2712402343751	-295.1687011718751	1356.27978515625	-744.0444946289064	-338.3552246093751	1315.408447265625	-731.4085693359376	-334.7196655273438	1247.961059570313	-720.1663208007814	-358.7478942871094	1221.58740234375	-794.1375122070315	-167.771484375	1000.636962890625	-717.3656616210939	-227.2917633056641	974.1190185546877	-674.7966308593751	-123.3590393066407	934.089050292969	-667.5474243164064	-253.5969390869141	1055.214965820313	-1154.325439453125	-235.7648162841797	1100.847534179688	-872.7383422851565	-435.874237060547	1175.27587890625	-1013.041015625	-445.9211425781251	1144.589477539063	-1039.685302734375	-446.2507629394532	1144.789916992188	-983.9609375000002	-318.3587341308594	849.799987792969	-1192.9677734375	-285.6142578125001	771.283630371094	-1186.300659179688	-236.9409942626954	775.1257934570315	-1184.30615234375	-311.5254821777344	719.3002929687501	-1168.904052734375	-280.5948791503907	573.1166381835939	-1140.349731445313	-265.1608581542969	555.7130737304689	-1007.430908203125	-258.7481384277344	351.0144042968751	-1059.948974609375	-294.5984802246094	304.1116638183594	-1127.730102539063	-262.6972961425782	301.4403076171876	-1093.757934570313	-274.1818847656251	226.5474700927735	-1056.615966796875	-343.6605834960938	110.3655166625977	-1096.158325195313	-399.622039794922	79.18374633789064	-1043.037353515625	-189.859619140625	56.63077545166017	-1026.71728515625	-184.8943176269532	58.77547454833986	-1069.330932617188	-311.9771118164063	125.0157470703125	-1012.355895996094	-198.7113647460938	799.7932739257815	-768.799011230469	-139.5348815917969	765.7431030273439	-765.0034179687501	-109.5556716918946	779.2724609375002	-772.1988525390627	-136.2941284179688	682.1117553710939	-770.628356933594	-130.4415740966797	629.6600952148439	-764.2679443359376	-103.9437408447266	598.3458862304689	-885.5320434570315	-151.0239715576172	488.6062011718751	-769.8176269531252	-248.5131225585938	458.315887451172	-738.2164916992189	-214.6753692626954	431.1734313964845	-755.7784423828126	-234.9145812988282	390.8685913085939	-795.7888183593752	-389.7077941894532	278.2842407226563	-748.0647583007814	-360.1624450683594	264.5955505371094	-835.2117919921877	-462.6167602539064	272.5866394042969	-806.2775878906252	-276.0993041992188	150.1693572998047	-786.3016357421877	-278.9496459960938	154.6961822509766	-746.7337036132814	-308.4267272949219	148.3879089355469	-700.9051513671876	-298.7486572265626	1758.875732421875	-1119.127807617188	
200	0.995	-143.8220825195313	1843.712768554688	-1049.139526367188	-304.9623413085938	1752.366455078125	-974.6595458984377	-373.6396484375001	1617.270629882813	-1053.131958007813	-415.6289367675782	1284.745971679688	-1027.55712890625	-211.9965362548829	1552.251586914063	-1054.675659179688	-289.9896545410157	1569.72412109375	-1250.318115234375	-358.7684936523438	1352.862182617188	-1333.8974609375	-319.9325866699219	1323.706176757813	-1331.326049804688	-367.3834533691407	1285.424072265625	-1337.259155273438	-364.9729003906251	1218.77685546875	-1338.751220703125	-397.409881591797	1207.742797851563	-1269.114624023438	-234.3227233886719	945.9678344726565	-1284.93701171875	-299.3160400390626	925.176696777344	-1328.138061523438	-200.1140289306641	867.5007934570315	-1321.757690429688	-261.0705261230469	1583.15283203125	-859.4615478515627	-334.3679504394532	1384.376953125	-743.1871948242189	-295.1625671386719	1356.581909179688	-744.8345947265626	-338.5981750488282	1315.5615234375	-732.3664550781251	-334.8600769042969	1248.14306640625	-721.0819702148439	-358.8108825683594	1221.935180664063	-795.053405761719	-167.8233642578125	1000.94287109375	-718.3172607421876	-227.2695312500001	974.338073730469	-675.7066650390626	-123.2489318847657	934.5900878906252	-668.6341552734376	-253.6115264892579	1055.297485351563	-1154.90576171875	-235.6705322265626	1101.188598632813	-873.2867431640627	-435.7734375000001	1175.387084960938	-1013.712280273438	-445.7354125976564	1144.661499023438	-1040.423217773438	-445.9680786132814	1145.056396484375	-984.626403808594	-318.5708618164063	849.8281250000002	-1193.4970703125	-285.9008178710938	771.2835083007815	-1186.902221679688	-237.0886993408204	775.225769042969	-1184.961669921875	-311.5593872070313	719.2466430664064	-1169.449951171875	-280.7794189453126	573.2335205078126	-1141.09619140625	-264.6783142089844	555.6914672851564	-1008.165771484375	-258.5789184570313	351.1194763183594	-1060.616455078125	-294.6660766601563	303.9596252441407	-1128.21875	-262.7701416015626	301.6076660156251	-1094.435546875	-274.9962158203126	226.2470855712891	-1057.91015625	-343.7453002929688	110.3905715942383	-1096.462158203125	-398.8862304687501	78.82085418701173	-1043.3134765625	-189.6916198730469	56.9338836669922	-1026.851318359375	-185.6799621582032	59.68268966674806	-1070.178466796875	-311.8435058593751	125.1472702026367	-1012.791015625	-196.6228179931641	801.1633300781252	-769.293640136719	-137.0869598388672	767.7088012695314	-765.5993652343751	-107.198844909668	781.6378173828127	-773.062194824219	-133.2190856933594	683.9190063476564	-771.0088500976565	-127.5198287963867	631.7286987304689	-764.8418579101564	-101.7624206542969	600.6669311523439	-886.1033325195315	-150.2814483642578	491.4255981445314	-770.5831298828127	-248.3839263916016	462.5361938476564	-739.0860595703126	-215.0352783203126	435.0852661132814	-756.6245727539064	-234.9755249023438	394.2454833984376	-796.1966552734377	-392.5357055664064	285.1083984375001	-749.3295898437501	-363.2561645507813	271.2864379882813	-836.1355590820315	-465.8623962402345	280.8448181152344	-807.4733886718752	-280.7430419921876	155.6574401855469	-787.8284301757815	-283.8908996582032	160.2544708251953	-748.3951416015626	-312.9751892089844	154.2681427001953	-702.6904907226564	-298.8617553710938	1758.801513671875	-1120.112548828125	
201	1	-143.8949279785157	1843.79638671875	-1050.02197265625	-305.1805114746094	1752.574951171875	-975.856140136719	-373.6335449218751	1617.425415039063	-1054.107299804688	-415.5965576171876	1284.6171875	-1028.446533203125	-211.9412994384766	1552.414672851563	-1055.565551757813	-289.6636352539063	1569.722534179688	-1251.199096679688	-358.5605468750001	1352.83740234375	-1334.885375976563	-319.6017456054688	1323.758056640625	-1332.294677734375	-367.0271911621094	1285.508422851563	-1338.278076171875	-364.4875793457032	1218.741821289063	-1339.850952148438	-397.0941772460939	1207.756103515625	-1270.017944335938	-234.139144897461	945.9910278320315	-1286.28271484375	-298.5827026367188	925.4350585937502	-1329.885986328125	-200.3043518066407	867.248718261719	-1323.303833007813	-261.1879272460938	1583.423461914063	-860.3790283203127	-334.4754638671876	1384.580322265625	-744.0565185546876	-295.3262939453126	1356.757690429688	-745.7572021484376	-338.6645202636719	1315.893432617188	-733.2827758789064	-335.0788574218751	1248.298706054688	-722.0805053710939	-358.9592590332032	1222.019287109375	-795.9772949218752	-167.8725128173828	1001.190673828125	-719.1290283203126	-227.3239440917969	974.513122558594	-676.6527709960939	-123.1050491333008	935.0928344726565	-669.6185913085939	-253.4930725097657	1055.336547851563	-1155.553100585938	-235.4803314208985	1101.573608398438	-873.8323364257815	-435.5119934082032	1175.52880859375	-1014.447204589844	-445.6233520507814	1144.711547851563	-1041.0322265625	-445.7441406250001	1145.286865234375	-985.2666015625002	-318.7457580566407	849.9158935546877	-1193.966918945313	-286.0972900390626	771.451843261719	-1187.501708984375	-236.7552185058594	774.7437133789065	-1185.867797851563	-311.9315795898438	719.3560791015626	-1169.952880859375	-280.7054138183594	573.2447509765626	-1141.589233398438	-264.2954711914063	555.9166259765626	-1008.762268066406	-258.6627502441407	350.9660034179688	-1061.336547851563	-294.9038391113282	303.9442749023438	-1128.629028320313	-262.6905517578126	301.6529846191407	-1095.085815429688	-274.4407653808594	225.9425659179688	-1058.169677734375	-343.8852844238282	110.4824829101563	-1096.736694335938	-399.5941772460939	79.77942657470705	-1043.341552734375	-189.5440826416016	57.09638977050783	-1026.987060546875	-183.3551330566407	61.15757369995119	-1069.941040039063	-311.6762390136719	125.200798034668	-1013.209838867188	-194.5744934082032	802.5203857421877	-769.6223754882815	-134.6853179931641	769.5035400390627	-766.0100097656251	-104.8999176025391	783.6343994140627	-773.6820068359377	-130.4122619628907	685.5689086914064	-771.5292968750002	-124.4976425170899	634.0511474609376	-765.3698120117189	-98.85673522949222	602.5253906250001	-886.614929199219	-149.5152435302735	494.0101928710939	-771.3239746093752	-248.4741973876954	467.1435852050782	-739.8132934570314	-215.450912475586	438.9184570312501	-757.4927978515626	-236.3450469970704	398.7308044433595	-797.3908691406252	-395.5004272460939	292.1946105957032	-750.6240844726564	-366.2087707519532	277.8196411132813	-837.5474853515627	-469.0124816894532	288.8649902343751	-808.5028076171877	-284.8482055664063	161.1302032470703	-788.7968750000002	-287.9111633300782	166.209701538086	-749.7345581054689	-317.5537719726563	159.9302062988282	-703.8992919921876	-299.0394897460938	1758.84033203125	-1121.036865234375	
202	1.005	-144.3263397216797	1844.164184570313	-1051.029418945313	-305.3064880371094	1752.607055664063	-976.6655273437502	-373.7582092285157	1617.476806640625	-1055.112182617188	-415.5047607421876	1284.710083007813	-1029.192260742188	-211.9068756103516	1552.510009765625	-1056.358642578125	-289.4339599609376	1569.895263671875	-1252.158935546875	-358.2019042968751	1352.769775390625	-1335.739624023438	-318.9801025390626	1323.762573242188	-1333.274536132813	-366.6779785156251	1285.322265625	-1339.186645507813	-364.1664428710938	1218.841674804688	-1340.83544921875	-396.7803344726564	1207.769287109375	-1271.262939453125	-234.2693634033204	946.0582275390627	-1287.695434570313	-298.9104919433594	925.184265136719	-1330.804321289063	-200.2227478027344	867.3379516601565	-1324.54248046875	-261.3030700683594	1583.700561523438	-861.0999755859377	-334.7171630859376	1384.742919921875	-745.0107421875001	-295.4441528320313	1357.04150390625	-746.6765136718751	-338.7264099121094	1316.219360351563	-734.0880737304689	-335.2108764648438	1248.61474609375	-722.9517822265626	-359.2633666992188	1222.104248046875	-796.9357910156252	-167.9072418212891	1001.544311523438	-720.1069946289064	-227.3024291992188	974.881286621094	-677.4348144531251	-123.0258026123047	935.1174926757815	-670.5451049804689	-252.8890838623047	1055.2412109375	-1156.198974609375	-235.3220520019532	1101.8427734375	-874.5487060546877	-435.3368530273439	1175.712768554688	-1015.178283691406	-445.4630737304689	1144.7724609375	-1041.637329101563	-445.6317443847657	1145.2998046875	-985.9412841796877	-318.8439636230469	849.9952392578127	-1194.417602539063	-286.1071166992188	771.421569824219	-1188.116333007813	-236.8150787353516	774.6018066406252	-1186.522094726563	-312.1512451171876	719.3847656250001	-1170.462036132813	-280.6500549316407	573.2640991210939	-1142.097900390625	-263.9913024902344	555.9491577148439	-1009.37109375	-258.6959228515626	350.9754028320313	-1062.04736328125	-295.3528442382813	304.7288208007813	-1129.273071289063	-262.6853637695313	301.5269470214844	-1095.74609375	-274.3650207519532	225.9851074218751	-1058.75	-344.1207275390626	110.4316940307617	-1097.07080078125	-399.5608825683595	79.7549285888672	-1043.473510742188	-189.5541534423828	57.21944808959962	-1027.165283203125	-183.3596801757813	61.07154464721681	-1070.075927734375	-311.4658508300782	125.1807327270508	-1013.760925292969	-192.4456939697266	803.839782714844	-770.073669433594	-132.4276885986328	771.144958496094	-766.5693359375001	-102.7143173217774	785.478942871094	-774.4248657226565	-127.6851654052735	687.3034057617189	-771.928649902344	-121.7772293090821	636.0135498046876	-765.9850463867189	-96.84340667724612	603.9713134765626	-887.2500000000002	-149.0467376708985	496.8779296875001	-772.1452636718752	-248.3751678466797	471.8378295898439	-740.7123413085939	-215.9026336669922	443.0007934570314	-758.3694458007814	-237.5583953857422	403.0382385253907	-798.3305664062502	-398.5088195800782	299.2525634765626	-751.8163452148439	-370.4536743164063	283.6612854003907	-838.082946777344	-472.2072753906251	297.2292175292969	-809.562683105469	-290.5039978027344	166.8657684326172	-791.0612792968752	-293.5762939453126	170.5047912597657	-752.0034790039064	-322.2391662597657	165.9047393798828	-705.4498291015626	-299.0954284667969	1759.115966796875	-1122.166870117188	
